<svg width="450" height="150" viewBox="0 0 450 150" fill="none" xmlns="http://www.w3.org/2000/svg">
<g clip-path="url(#clip0_2_87)">
<rect width="450" height="150" fill="#3B4663"/>
<path d="M101.142 103.011C95.801 103.011 90.9788 101.819 86.6751 99.4333C82.3714 96.9963 79.001 93.6259 76.564 89.3222C74.127 85.0185 72.9084 80.1704 72.9084 74.7778C72.9084 69.3852 74.127 64.537 76.564 60.2333C79.0529 55.9296 82.4492 52.5852 86.7529 50.2C91.0566 47.763 95.8788 46.5444 101.22 46.5444C105.834 46.5444 110.008 47.4259 113.742 49.1889C117.527 50.9 120.638 53.363 123.075 56.5778L114.364 64.9778C110.994 60.7259 106.845 58.6 101.92 58.6C98.964 58.6 96.3196 59.2741 93.9862 60.6222C91.7047 61.9704 89.9158 63.8889 88.6196 66.3778C87.3233 68.8148 86.6751 71.6148 86.6751 74.7778C86.6751 77.9407 87.3233 80.7407 88.6196 83.1778C89.9158 85.6148 91.7047 87.5074 93.9862 88.8556C96.3196 90.2037 98.964 90.8778 101.92 90.8778C106.897 90.8778 111.045 88.7519 114.364 84.5L123.075 92.9C120.638 96.1667 117.527 98.6815 113.742 100.444C110.008 102.156 105.808 103.011 101.142 103.011ZM151.98 103.011C146.535 103.011 141.635 101.793 137.28 99.3556C132.924 96.9185 129.502 93.5481 127.013 89.2444C124.576 84.9407 123.358 80.1185 123.358 74.7778C123.358 69.437 124.576 64.6148 127.013 60.3111C129.502 56.0074 132.924 52.637 137.28 50.2C141.635 47.763 146.535 46.5444 151.98 46.5444C157.372 46.5444 162.247 47.763 166.602 50.2C170.958 52.637 174.354 56.0074 176.791 60.3111C179.28 64.563 180.524 69.3852 180.524 74.7778C180.524 80.1704 179.28 85.0185 176.791 89.3222C174.354 93.5741 170.958 96.9185 166.602 99.3556C162.247 101.793 157.372 103.011 151.98 103.011ZM151.98 90.8778C154.78 90.8778 157.295 90.2037 159.524 88.8556C161.806 87.5074 163.569 85.6148 164.813 83.1778C166.11 80.7407 166.758 77.9407 166.758 74.7778C166.758 71.6148 166.11 68.8148 164.813 66.3778C163.569 63.8889 161.806 61.9704 159.524 60.6222C157.295 59.2741 154.78 58.6 151.98 58.6C149.128 58.6 146.561 59.2741 144.28 60.6222C142.05 61.9704 140.287 63.8889 138.991 66.3778C137.747 68.8148 137.124 71.6148 137.124 74.7778C137.124 77.9407 137.747 80.7407 138.991 83.1778C140.287 85.6148 142.05 87.5074 144.28 88.8556C146.561 90.2037 149.128 90.8778 151.98 90.8778ZM234.857 102H223.657L199.779 71.6667V102H186.401V47.5556H197.601L221.479 77.8111V47.5556H234.857V102ZM329.069 102H288.158V47.5556H328.058V58.9111H301.691V68.8667H325.024V79.9111H301.691V90.5667H329.069V102ZM376.647 102H335.736V47.5556H375.636V58.9111H349.269V68.8667H372.602V79.9111H349.269V90.5667H376.647V102Z" fill="white"/>
<path d="M238.466 59.1444V47.5556H284.277V59.1444H268.177V102H254.644V59.1444H238.466Z" fill="#3B4663"/>
<line x1="264" y1="32" x2="264" y2="102" stroke="#505F86" stroke-width="10"/>
<path d="M379 59C382.314 59 385 56.3137 385 53C385 49.6863 382.314 47 379 47V53V59ZM243 53V59L379 59V53V47L243 47V53Z" fill="#505F86"/>
</g>
<defs>
<clipPath id="clip0_2_87">
<rect width="450" height="150" rx="15" fill="white"/>
</clipPath>
</defs>
</svg>
