<svg width="192" height="192" viewBox="0 0 192 192" fill="none" xmlns="http://www.w3.org/2000/svg">
<g clip-path="url(#clip0_5_2)">
<rect width="192" height="192" fill="white"/>
<path d="M45.8844 106.404C43.7481 106.404 41.8193 105.927 40.0978 104.973C38.3763 103.999 37.0281 102.65 36.0533 100.929C35.0785 99.2074 34.5911 97.2681 34.5911 95.1111C34.5911 92.9541 35.0785 91.0148 36.0533 89.2933C37.0489 87.5719 38.4074 86.2341 40.1289 85.28C41.8504 84.3052 43.7793 83.8178 45.9156 83.8178C47.7615 83.8178 49.4311 84.1704 50.9244 84.8756C52.4385 85.56 53.683 86.5452 54.6578 87.8311L51.1733 91.1911C49.8252 89.4904 48.1659 88.64 46.1956 88.64C45.0133 88.64 43.9556 88.9096 43.0222 89.4489C42.1096 89.9881 41.3941 90.7556 40.8756 91.7511C40.357 92.7259 40.0978 93.8459 40.0978 95.1111C40.0978 96.3763 40.357 97.4963 40.8756 98.4711C41.3941 99.4459 42.1096 100.203 43.0222 100.742C43.9556 101.281 45.0133 101.551 46.1956 101.551C48.1867 101.551 49.8459 100.701 51.1733 99L54.6578 102.36C53.683 103.667 52.4385 104.673 50.9244 105.378C49.4311 106.062 47.7511 106.404 45.8844 106.404ZM66.2197 106.404C64.0419 106.404 62.0819 105.917 60.3397 104.942C58.5975 103.967 57.2286 102.619 56.233 100.898C55.2582 99.1763 54.7708 97.2474 54.7708 95.1111C54.7708 92.9748 55.2582 91.0459 56.233 89.3244C57.2286 87.603 58.5975 86.2548 60.3397 85.28C62.0819 84.3052 64.0419 83.8178 66.2197 83.8178C68.3767 83.8178 70.3264 84.3052 72.0686 85.28C73.8108 86.2548 75.1693 87.603 76.1441 89.3244C77.1397 91.0252 77.6375 92.9541 77.6375 95.1111C77.6375 97.2681 77.1397 99.2074 76.1441 100.929C75.1693 102.63 73.8108 103.967 72.0686 104.942C70.3264 105.917 68.3767 106.404 66.2197 106.404ZM66.2197 101.551C67.3397 101.551 68.3456 101.281 69.2375 100.742C70.1501 100.203 70.8552 99.4459 71.353 98.4711C71.8715 97.4963 72.1308 96.3763 72.1308 95.1111C72.1308 93.8459 71.8715 92.7259 71.353 91.7511C70.8552 90.7556 70.1501 89.9881 69.2375 89.4489C68.3456 88.9096 67.3397 88.64 66.2197 88.64C65.0789 88.64 64.0523 88.9096 63.1397 89.4489C62.2478 89.9881 61.5427 90.7556 61.0241 91.7511C60.5264 92.7259 60.2775 93.8459 60.2775 95.1111C60.2775 96.3763 60.5264 97.4963 61.0241 98.4711C61.5427 99.4459 62.2478 100.203 63.1397 100.742C64.0523 101.281 65.0789 101.551 66.2197 101.551ZM99.3704 106H94.8904L85.3393 93.8667V106H79.9882V84.2222H84.4682L94.0193 96.3244V84.2222H99.3704V106ZM137.055 106H120.691V84.2222H136.651V88.7644H126.104V92.7467H135.437V97.1644H126.104V101.427H137.055V106ZM156.086 106H139.722V84.2222H155.682V88.7644H145.135V92.7467H154.469V97.1644H145.135V101.427H156.086V106Z" fill="black"/>
<path d="M100.814 88.8578V84.2222H119.138V88.8578H112.698V106H107.285V88.8578H100.814Z" fill="white"/>
<line x1="111" y1="78" x2="111" y2="106" stroke="#505F86" stroke-width="6"/>
<path d="M159 89C160.657 89 162 87.6569 162 86C162 84.3431 160.657 83 159 83V86V89ZM102 86V89H159V86V83H102V86Z" fill="#505F86"/>
</g>
<defs>
<clipPath id="clip0_5_2">
<rect width="192" height="192" rx="20" fill="white"/>
</clipPath>
</defs>
</svg>
