<svg width="128" height="30" viewBox="0 0 128 30" fill="none" xmlns="http://www.w3.org/2000/svg">
<path d="M11.2933 28.4044C9.15704 28.4044 7.22815 27.9274 5.50667 26.9733C3.78519 25.9985 2.43704 24.6504 1.46222 22.9289C0.487408 21.2074 9.08971e-07 19.2681 9.08971e-07 17.1111C9.08971e-07 14.9541 0.487408 13.0148 1.46222 11.2933C2.45778 9.57185 3.8163 8.23407 5.53778 7.28C7.25926 6.30518 9.18815 5.81778 11.3244 5.81778C13.1704 5.81778 14.84 6.17037 16.3333 6.87555C17.8474 7.56 19.0919 8.54519 20.0667 9.83111L16.5822 13.1911C15.2341 11.4904 13.5748 10.64 11.6044 10.64C10.4222 10.64 9.36445 10.9096 8.43111 11.4489C7.51852 11.9881 6.80296 12.7556 6.28445 13.7511C5.76593 14.7259 5.50667 15.8459 5.50667 17.1111C5.50667 18.3763 5.76593 19.4963 6.28445 20.4711C6.80296 21.4459 7.51852 22.203 8.43111 22.7422C9.36445 23.2815 10.4222 23.5511 11.6044 23.5511C13.5956 23.5511 15.2548 22.7007 16.5822 21L20.0667 24.36C19.0919 25.6667 17.8474 26.6726 16.3333 27.3778C14.84 28.0622 13.16 28.4044 11.2933 28.4044ZM31.6286 28.4044C29.4508 28.4044 27.4908 27.917 25.7486 26.9422C24.0064 25.9674 22.6375 24.6193 21.6419 22.8978C20.6671 21.1763 20.1797 19.2474 20.1797 17.1111C20.1797 14.9748 20.6671 13.0459 21.6419 11.3244C22.6375 9.60296 24.0064 8.25481 25.7486 7.28C27.4908 6.30518 29.4508 5.81778 31.6286 5.81778C33.7856 5.81778 35.7352 6.30518 37.4775 7.28C39.2197 8.25481 40.5782 9.60296 41.553 11.3244C42.5486 13.0252 43.0464 14.9541 43.0464 17.1111C43.0464 19.2681 42.5486 21.2074 41.553 22.9289C40.5782 24.6296 39.2197 25.9674 37.4775 26.9422C35.7352 27.917 33.7856 28.4044 31.6286 28.4044ZM31.6286 23.5511C32.7486 23.5511 33.7545 23.2815 34.6464 22.7422C35.5589 22.203 36.2641 21.4459 36.7619 20.4711C37.2804 19.4963 37.5397 18.3763 37.5397 17.1111C37.5397 15.8459 37.2804 14.7259 36.7619 13.7511C36.2641 12.7556 35.5589 11.9881 34.6464 11.4489C33.7545 10.9096 32.7486 10.64 31.6286 10.64C30.4878 10.64 29.4612 10.9096 28.5486 11.4489C27.6567 11.9881 26.9515 12.7556 26.433 13.7511C25.9352 14.7259 25.6864 15.8459 25.6864 17.1111C25.6864 18.3763 25.9352 19.4963 26.433 20.4711C26.9515 21.4459 27.6567 22.203 28.5486 22.7422C29.4612 23.2815 30.4878 23.5511 31.6286 23.5511ZM64.7793 28H60.2993L50.7482 15.8667V28H45.3971V6.22222H49.8771L59.4282 18.3244V6.22222H64.7793V28ZM102.464 28H86.0996V6.22222H102.06V10.7644H91.513V14.7467H100.846V19.1644H91.513V23.4267H102.464V28ZM121.495 28H105.131V6.22222H121.091V10.7644H110.544V14.7467H119.878V19.1644H110.544V23.4267H121.495V28Z" fill="black"/>
<path d="M66.2229 10.8578V6.22222H84.5474V10.8578H78.1074V28H72.694V10.8578H66.2229Z" fill="white"/>
<line x1="76.4089" x2="76.4089" y2="28" stroke="#505F86" stroke-width="6"/>
<path d="M124.409 11C126.066 11 127.409 9.65685 127.409 8C127.409 6.34315 126.066 5 124.409 5V8V11ZM67.4089 8V11H124.409V8V5H67.4089V8Z" fill="#505F86"/>
</svg>
