<svg width="160" height="160" viewBox="0 0 160 160" fill="none" xmlns="http://www.w3.org/2000/svg">
<g clip-path="url(#clip0_2_98)">
<rect width="160" height="160" fill="white"/>
<path d="M29.8844 90.4044C27.7481 90.4044 25.8193 89.9274 24.0978 88.9733C22.3763 87.9985 21.0281 86.6504 20.0533 84.9289C19.0785 83.2074 18.5911 81.2681 18.5911 79.1111C18.5911 76.9541 19.0785 75.0148 20.0533 73.2933C21.0489 71.5719 22.4074 70.2341 24.1289 69.28C25.8504 68.3052 27.7793 67.8178 29.9156 67.8178C31.7615 67.8178 33.4311 68.1704 34.9244 68.8756C36.4385 69.56 37.683 70.5452 38.6578 71.8311L35.1733 75.1911C33.8252 73.4904 32.1659 72.64 30.1956 72.64C29.0133 72.64 27.9556 72.9096 27.0222 73.4489C26.1096 73.9881 25.3941 74.7556 24.8756 75.7511C24.357 76.7259 24.0978 77.8459 24.0978 79.1111C24.0978 80.3763 24.357 81.4963 24.8756 82.4711C25.3941 83.4459 26.1096 84.203 27.0222 84.7422C27.9556 85.2815 29.0133 85.5511 30.1956 85.5511C32.1867 85.5511 33.8459 84.7007 35.1733 83L38.6578 86.36C37.683 87.6667 36.4385 88.6726 34.9244 89.3778C33.4311 90.0622 31.7511 90.4044 29.8844 90.4044ZM50.2197 90.4044C48.0419 90.4044 46.0819 89.917 44.3397 88.9422C42.5975 87.9674 41.2286 86.6193 40.233 84.8978C39.2582 83.1763 38.7708 81.2474 38.7708 79.1111C38.7708 76.9748 39.2582 75.0459 40.233 73.3244C41.2286 71.603 42.5975 70.2548 44.3397 69.28C46.0819 68.3052 48.0419 67.8178 50.2197 67.8178C52.3767 67.8178 54.3264 68.3052 56.0686 69.28C57.8108 70.2548 59.1693 71.603 60.1441 73.3244C61.1397 75.0252 61.6375 76.9541 61.6375 79.1111C61.6375 81.2681 61.1397 83.2074 60.1441 84.9289C59.1693 86.6296 57.8108 87.9674 56.0686 88.9422C54.3264 89.917 52.3767 90.4044 50.2197 90.4044ZM50.2197 85.5511C51.3397 85.5511 52.3456 85.2815 53.2375 84.7422C54.1501 84.203 54.8552 83.4459 55.353 82.4711C55.8715 81.4963 56.1308 80.3763 56.1308 79.1111C56.1308 77.8459 55.8715 76.7259 55.353 75.7511C54.8552 74.7556 54.1501 73.9881 53.2375 73.4489C52.3456 72.9096 51.3397 72.64 50.2197 72.64C49.0789 72.64 48.0523 72.9096 47.1397 73.4489C46.2478 73.9881 45.5427 74.7556 45.0241 75.7511C44.5264 76.7259 44.2775 77.8459 44.2775 79.1111C44.2775 80.3763 44.5264 81.4963 45.0241 82.4711C45.5427 83.4459 46.2478 84.203 47.1397 84.7422C48.0523 85.2815 49.0789 85.5511 50.2197 85.5511ZM83.3704 90H78.8904L69.3393 77.8667V90H63.9882V68.2222H68.4682L78.0193 80.3244V68.2222H83.3704V90ZM121.055 90H104.691V68.2222H120.651V72.7644H110.104V76.7467H119.437V81.1644H110.104V85.4267H121.055V90ZM140.086 90H123.722V68.2222H139.682V72.7644H129.135V76.7467H138.469V81.1644H129.135V85.4267H140.086V90Z" fill="black"/>
<path d="M84.814 72.8578V68.2222H103.138V72.8578H96.6985V90H91.2851V72.8578H84.814Z" fill="white"/>
<line x1="95" y1="62" x2="95" y2="90" stroke="#505F86" stroke-width="6"/>
<path d="M143 73C144.657 73 146 71.6569 146 70C146 68.3431 144.657 67 143 67V70V73ZM86 70V73H143V70V67H86V70Z" fill="#505F86"/>
</g>
<defs>
<clipPath id="clip0_2_98">
<rect width="160" height="160" rx="20" fill="white"/>
</clipPath>
</defs>
</svg>
